# xmcd CD database file
#
# Track frame offsets:
#	150
#	15884
#	32004
#	47801
#	62352
#	76730
#	90272
#	105142
#	111092
#	125208
#	136240
#	152352
#	160232
#	171229
#
# Disc length: 2484 seconds
#
# Revision: 0
# Processed by: cddbd v1.5.2PL0 Copyright (c) Steve Scherf et al.
# Submitted via: CDex 1.51
#
DISCID=9509b20e
DTITLE=Jack Johnson - In Between Dreams
DYEAR=2004
DGENRE=Jazz
TTITLE0=Better Together
TTITLE1=Never Know
TTITLE2=Bannana Pancakes
TTITLE3=Good People
TTITLE4=No Other Way
TTITLE5=Sitting, Waiting, Wishing
TTITLE6=Staple It Together
TTITLE7=Situations
TTITLE8=Crying Shame
TTITLE9=If I Could
TTITLE10=Breakdown
TTITLE11=Belle
TTITLE12=Do you Remember
TTITLE13=Constellations
EXTD=YEAR: 2004
EXTT0=
EXTT1=
EXTT2=
EXTT3=
EXTT4=
EXTT5=
EXTT6=
EXTT7=
EXTT8=
EXTT9=
EXTT10=
EXTT11=
EXTT12=
EXTT13=
PLAYORDER=
